<?xml version="1.0" encoding="utf-8"?>
<!-- Generator: Adobe Illustrator 22.1.0, SVG Export Plug-In . SVG Version: 6.00 Build 0)  -->
<svg version="1.1" id="Layer_1" xmlns="http://www.w3.org/2000/svg" xmlns:xlink="http://www.w3.org/1999/xlink" x="0px" y="0px"
	 width="1929px" height="521px" viewBox="0 0 1929 521" style="enable-background:new 0 0 1929 521;" xml:space="preserve">
<style type="text/css">
	.st0{fill:#DA0008;}
</style>
<path class="st0" d="M240.5871,25.8288h110.0105v321.7318c0,51.2009-16.6039,92.7131-49.1231,125.2323
	c-32.5215,32.5192-74.7247,48.4321-126.6167,48.4321c-51.2009,0-93.4065-15.9129-125.9257-48.4321S0.5,398.0681,0.5,346.1761
	h110.0105c0.6934,46.3589,24.2172,72.6493,65.0383,72.6493s65.0383-28.3682,65.0383-74.7247V25.8288z M426.7081,203.6456
	c-35.288,35.288-53.2764,78.8757-53.2764,132.1521s17.9884,97.5575,53.2764,132.8432
	c35.9768,35.2881,81.6423,52.5854,137.6853,52.5854c55.3519,0,101.0174-17.2973,136.9965-52.5854
	c35.9791-35.2857,53.9675-79.5668,53.9675-132.8432c0-52.5831-17.9885-96.173-53.9675-131.4611
	c-35.9791-35.2857-81.6446-53.2764-136.9965-53.2764C508.3504,151.0603,462.6849,168.3576,426.7081,203.6456 M564.3934,247.9267
	c50.5098,0,87.18,38.0546,87.18,88.5621c0,50.5099-36.6702,87.8711-87.18,87.8711c-50.5076,0-86.4844-37.3612-86.4844-87.8711
	C477.909,285.9813,513.8859,247.9267,564.3934,247.9267 M673.7151,16.1438H572.0043l-56.7341,103.0906h99.633L673.7151,16.1438z
	 M994.7485,464.4904c27.6748,36.6702,67.8049,56.7364,116.928,56.7364c49.1254,0,89.2555-17.2996,120.3901-51.8943
	c31.1371-35.2857,47.0477-79.5668,47.0477-134.2277c0-53.9675-15.2195-98.2486-46.3542-132.1499
	c-31.1371-34.597-70.5737-51.8943-119.6992-51.8943c-44.9744,0-85.1022,17.9907-113.4704,53.2764V-0.4643H894.4222v512.6957
	h100.3263V464.4904z M1082.6173,246.5427c50.5099,0,86.4866,37.3612,86.4866,89.9466s-35.9767,89.9466-86.4866,89.9466
	c-50.5076,0-85.7957-37.3612-85.7957-89.9466S1032.1097,246.5427,1082.6173,246.5427 M1351.7672,203.6449
	c-35.2858,35.288-53.2742,78.8757-53.2742,132.1522c0,53.2787,17.9884,97.5598,53.2742,132.8455
	c35.979,35.2857,81.6447,52.583,137.6876,52.583c55.3518,0,101.0173-17.2973,136.9965-52.583
	c35.9792-35.2857,53.9675-79.5668,53.9675-132.8455c0-52.5831-17.9883-96.1731-53.9675-131.4588
	c-35.9791-35.2857-81.6447-53.2764-136.9965-53.2764C1433.4119,151.0619,1387.7462,168.3592,1351.7672,203.6449 M1489.4548,247.926
	c50.5099,0,87.1801,38.0546,87.1801,88.5622c0,50.5098-36.6702,87.8734-87.1801,87.8734c-50.5076,0-86.4867-37.3635-86.4867-87.8734
	C1402.9681,285.9806,1438.9473,247.926,1489.4548,247.926 M1812.5675,353.096c0-63.6562,31.828-102.4019,89.2554-102.4019
	c7.611,0,13.1464,0.6911,27.6771,3.4599v-98.9396c-5.5354-0.6933-13.1464-2.0778-21.4507-2.0778
	c-42.2056,0-78.1846,23.5238-100.324,67.1161v-60.1963H1707.399v352.1754h105.1685V353.096"/>
</svg>
